<?xml version="1.0" encoding="UTF-8"?>
<svg width="227px" height="40px" viewBox="0 0 227 40" version="1.1" xmlns="http://www.w3.org/2000/svg" xmlns:xlink="http://www.w3.org/1999/xlink">
    <!-- Generator: Sketch 51.3 (57544) - http://www.bohemiancoding.com/sketch -->
    <title>adm</title>
    <desc>Created with Sketch.</desc>
    <defs></defs>
    <g id="Page-1" stroke="none" stroke-width="1" fill="none" fill-rule="evenodd">
        <g id="adm" transform="translate(1.000000, 0.000000)">
            <g id="adm1" transform="translate(149.000000, 0.000000)">
                <rect id="adm1_bg" stroke="#B7BEBE" stroke-width="3" fill="#FFFFFF" x="1.5" y="1.5" width="37" height="37"></rect>
                <text id="adm1_label" font-family="SourceSansPro-Bold, Source Sans Pro" font-size="20" font-weight="bold" fill="#363636">
                    <tspan x="16" y="26">1</tspan>
                </text>
            </g>
            <g id="adm2" transform="translate(186.000000, 0.000000)">
                <path d="M38.5,38.5 L38.5,1.5 L10,1.5 C5.30557963,1.5 1.5,5.30557963 1.5,10 L1.5,30 C1.5,34.6944204 5.30557963,38.5 10,38.5 L38.5,38.5 Z" id="adm2_bg" stroke="#B7BEBE" stroke-width="3" fill="#FFFFFF" transform="translate(20.000000, 20.000000) scale(-1, 1) translate(-20.000000, -20.000000) "></path>
                <text id="adm2_label" font-family="SourceSansPro-Bold, Source Sans Pro" font-size="20" font-weight="bold" fill="#363636">
                    <tspan x="15" y="26">2</tspan>
                </text>
            </g>
            <g id="adm0" transform="translate(112.000000, 0.000000)">
                <path d="M38.5,38.5 L38.5,1.5 L10,1.5 C5.30557963,1.5 1.5,5.30557963 1.5,10 L1.5,30 C1.5,34.6944204 5.30557963,38.5 10,38.5 L38.5,38.5 Z" id="adm0_bg" stroke="#B7BEBE" stroke-width="3" fill="#FFFFFF"></path>
                <text id="adm0_label" font-family="SourceSansPro-Bold, Source Sans Pro" font-size="20" font-weight="bold" fill="#363636">
                    <tspan x="16" y="26">0</tspan>
                </text>
            </g>
            <text id="Admin-Level" font-family="SourceSansPro-Bold, Source Sans Pro" font-size="19" font-weight="bold" fill="#363636">
                <tspan x="0" y="26">Admin Level</tspan>
            </text>
        </g>
    </g>
</svg>