<?xml version="1.0" encoding="UTF-8"?>
<svg width="450px" height="50px" viewBox="0 0 450 50" version="1.1" xmlns="http://www.w3.org/2000/svg" xmlns:xlink="http://www.w3.org/1999/xlink">
    <!-- Generator: Sketch 51.3 (57544) - http://www.bohemiancoding.com/sketch -->
    <title>Artboard</title>
    <desc>Created with Sketch.</desc>
    <defs></defs>
    <g id="Artboard" stroke="none" stroke-width="1" fill="none" fill-rule="evenodd">
        <path d="M164.383333,2.03489404 L164.383333,2 L192.616667,2 L192.616667,2.03489404 C193.041489,2.01173252 193.469368,2 193.9,2 C206.657778,2 217,12.2974508 217,25 C217,37.7025492 206.657778,48 193.9,48 C193.469368,48 193.041489,47.9882675 192.616667,47.965106 L192.616667,48 L164.383333,48 L164.383333,47.965106 C163.958511,47.9882675 163.530632,48 163.1,48 C150.342222,48 140,37.7025492 140,25 C140,12.2974508 150.342222,2 163.1,2 C163.530632,2 163.958511,2.01173252 164.383333,2.03489404 Z" id="Combined-Shape" fill="#D8D8D8"></path>
        <circle id="toggle1" stroke="#E5E5E5" fill="#505050" cx="193.5" cy="25.5" r="18.5"></circle>
        <circle id="toggle0" stroke="#E5E5E5" fill="#505050" cx="163.5" cy="25.5" r="18.5"></circle>
        <text id="average-reliability" font-family="SourceSansPro-Regular, Source Sans Pro" font-size="24" font-weight="normal" fill="#7C7C7C">
            <tspan x="230" y="32">average reliability</tspan>
        </text>
        <text id="#-of-entries" font-family="SourceSansPro-Regular, Source Sans Pro" font-size="24" font-weight="normal" fill="#7C7C7C">
            <tspan x="14.024" y="32"># of entries</tspan>
        </text>
    </g>
</svg>