<?xml version="1.0" encoding="UTF-8"?>
<svg width="57px" height="229px" viewBox="0 0 57 229" version="1.1" xmlns="http://www.w3.org/2000/svg" xmlns:xlink="http://www.w3.org/1999/xlink">
    <title>map-toggle-gridmap</title>
    <g id="Page-1" stroke="none" stroke-width="1" fill="none" fill-rule="evenodd">
        <g id="map-toggle-gridmap">
            <g id="choropleth" transform="translate(0.000000, 172.000000)" stroke-width="3">
                <rect id="Rectangle" stroke="#DBDBD9" fill="#FFFFFF" transform="translate(28.500000, 28.500000) rotate(-180.000000) translate(-28.500000, -28.500000) " x="1.5" y="1.5" width="54" height="54"></rect>
                <polygon id="Path-2" stroke="#333333" fill="#343434" points="12 30 12 44.5714286 24 44.5714286 24 36 18 30"></polygon>
                <polygon id="Path-3" stroke="#333333" fill="#333333" points="22 28.1486014 27.3076923 33.0576923 37.9230769 33.0576923 45 28.1486014 45 15.0576923"></polygon>
                <polygon id="Path-4" stroke="#333333" fill="#333333" points="28 37.1165414 28 44.5263158 45 44.5263158 45 33 38.7368421 37.1165414"></polygon>
                <polygon id="Path-5" stroke="#333333" fill="#343434" points="12 26 18.4 26 40 13.2142857 12 13.2142857"></polygon>
            </g>
            <g id="gridmap" transform="translate(0.000000, 116.000000)">
                <rect id="Rectangle" fill="#5061E4" x="0" y="0" width="57" height="53"></rect>
                <g id="Group-2" transform="translate(11.000000, 12.000000)"></g>
                <g id="Group-4" transform="translate(13.000000, 11.000000)" fill="#FFFFFF" stroke="#5061E4">
                    <rect id="Rectangle" x="0" y="0" width="15" height="15"></rect>
                    <rect id="Rectangle" x="16" y="0" width="15" height="15"></rect>
                    <rect id="Rectangle" x="16" y="16" width="15" height="15"></rect>
                    <rect id="Rectangle" x="0" y="16" width="15" height="15"></rect>
                </g>
            </g>
            <g id="heatmap" transform="translate(0.000000, 60.000000)">
                <rect id="Rectangle" stroke="#DBDBD9" stroke-width="3" fill="#FFFFFF" x="1.5" y="1.5" width="54" height="50"></rect>
                <g id="Group-2" transform="translate(11.000000, 12.000000)" stroke="#FFFFFF" stroke-width="0.5">
                    <g id="Group">
                        <rect id="Rectangle" fill="#D8D8D8" x="0" y="0" width="5" height="5"></rect>
                        <rect id="Rectangle" fill="#858585" x="0" y="5" width="5" height="5"></rect>
                        <rect id="Rectangle" fill="#4B4B4B" x="0" y="10" width="5" height="5"></rect>
                        <rect id="Rectangle" fill="#858585" x="0" y="15" width="5" height="5"></rect>
                        <rect id="Rectangle" fill="#999999" x="5" y="0" width="5" height="5"></rect>
                        <rect id="Rectangle" fill="#D8D8D8" x="0" y="20" width="5" height="5"></rect>
                        <rect id="Rectangle" fill="#1A1A1A" x="5" y="20" width="5" height="5"></rect>
                        <rect id="Rectangle" fill="#D8D8D8" x="0" y="25" width="5" height="5"></rect>
                        <rect id="Rectangle" fill="#999999" x="5" y="25" width="5" height="5"></rect>
                        <rect id="Rectangle" fill="#555555" x="5" y="5" width="5" height="5"></rect>
                        <rect id="Rectangle" fill="#4B4B4B" x="5" y="10" width="5" height="5"></rect>
                        <rect id="Rectangle" fill="#858585" x="5" y="15" width="5" height="5"></rect>
                        <rect id="Rectangle" fill="#D8D8D8" x="10" y="0" width="5" height="5"></rect>
                        <rect id="Rectangle" fill="#858585" x="10" y="5" width="5" height="5"></rect>
                        <rect id="Rectangle" fill="#4B4B4B" x="10" y="10" width="5" height="5"></rect>
                        <rect id="Rectangle" fill="#5A5A5A" x="10" y="15" width="5" height="5"></rect>
                        <rect id="Rectangle" fill="#999999" x="15" y="0" width="5" height="5"></rect>
                        <rect id="Rectangle" fill="#393939" x="10" y="20" width="5" height="5"></rect>
                        <rect id="Rectangle" fill="#000000" x="15" y="20" width="5" height="5"></rect>
                        <rect id="Rectangle" fill="#1A1A1A" x="10" y="25" width="5" height="5"></rect>
                        <rect id="Rectangle" fill="#999999" x="15" y="25" width="5" height="5"></rect>
                        <rect id="Rectangle" fill="#555555" x="15" y="5" width="5" height="5"></rect>
                        <rect id="Rectangle" fill="#4B4B4B" x="15" y="10" width="5" height="5"></rect>
                        <rect id="Rectangle" fill="#000000" x="15" y="15" width="5" height="5"></rect>
                        <rect id="Rectangle" fill="#D8D8D8" x="20" y="0" width="5" height="5"></rect>
                        <rect id="Rectangle" fill="#858585" x="20" y="5" width="5" height="5"></rect>
                        <rect id="Rectangle" fill="#1F1F1F" x="20" y="10" width="5" height="5"></rect>
                        <rect id="Rectangle" fill="#2F2B2B" x="20" y="15" width="5" height="5"></rect>
                        <rect id="Rectangle" fill="#999999" x="25" y="0" width="5" height="5"></rect>
                        <rect id="Rectangle" fill="#585858" x="20" y="20" width="5" height="5"></rect>
                        <rect id="Rectangle" fill="#999999" x="25" y="20" width="5" height="5"></rect>
                        <rect id="Rectangle" fill="#D0D0D0" x="20" y="25" width="5" height="5"></rect>
                        <rect id="Rectangle" fill="#E9E9E9" x="25" y="25" width="5" height="5"></rect>
                        <rect id="Rectangle" fill="#555555" x="25" y="5" width="5" height="5"></rect>
                        <rect id="Rectangle" fill="#4B4B4B" x="25" y="10" width="5" height="5"></rect>
                        <rect id="Rectangle" fill="#858585" x="25" y="15" width="5" height="5"></rect>
                        <rect id="Rectangle" fill="#D8D8D8" x="30" y="0" width="5" height="5"></rect>
                        <rect id="Rectangle" fill="#858585" x="30" y="5" width="5" height="5"></rect>
                        <rect id="Rectangle" fill="#4B4B4B" x="30" y="10" width="5" height="5"></rect>
                        <rect id="Rectangle" fill="#858585" x="30" y="15" width="5" height="5"></rect>
                        <rect id="Rectangle" fill="#D8D8D8" x="30" y="20" width="5" height="5"></rect>
                        <rect id="Rectangle" fill="#D8D8D8" x="30" y="25" width="5" height="5"></rect>
                    </g>
                </g>
            </g>
            <g id="bubbles" fill="#FFFFFF">
                <rect id="Rectangle" stroke="#DBDBD9" stroke-width="3" x="1.5" y="1.5" width="54" height="54"></rect>
                <circle id="Oval" stroke="#333333" stroke-width="4" cx="26.5" cy="27.5" r="13.5"></circle>
                <circle id="Oval" stroke="#333333" stroke-width="3" cx="35.5" cy="19.5" r="5.5"></circle>
                <circle id="Oval" stroke="#333333" stroke-width="3" cx="38" cy="38" r="8"></circle>
            </g>
        </g>
    </g>
</svg>